<?xml version="1.0" encoding="UTF-8" standalone="no"?>
<!-- Created with Inkscape (http://www.inkscape.org/) -->

<svg
   xmlns:osb="http://www.openswatchbook.org/uri/2009/osb"
   xmlns:dc="http://purl.org/dc/elements/1.1/"
   xmlns:cc="http://creativecommons.org/ns#"
   xmlns:rdf="http://www.w3.org/1999/02/22-rdf-syntax-ns#"
   xmlns:svg="http://www.w3.org/2000/svg"
   xmlns="http://www.w3.org/2000/svg"
   xmlns:xlink="http://www.w3.org/1999/xlink"
   xmlns:sodipodi="http://sodipodi.sourceforge.net/DTD/sodipodi-0.dtd"
   xmlns:inkscape="http://www.inkscape.org/namespaces/inkscape"
   version="1.1"
   id="svg64"
   width="334.66666"
   height="414.66666"
   viewBox="0 0 334.66666 414.66666"
   sodipodi:docname="test-transparent.svg"
   inkscape:version="0.92.5 (2060ec1f9f, 2020-04-08)">
  <metadata
     id="metadata70">
    <rdf:RDF>
      <cc:Work
         rdf:about="">
        <dc:format>image/svg+xml</dc:format>
        <dc:type
           rdf:resource="http://purl.org/dc/dcmitype/StillImage" />
        <dc:title></dc:title>
      </cc:Work>
    </rdf:RDF>
  </metadata>
  <defs
     id="defs68">
    <linearGradient
       inkscape:collect="always"
       id="linearGradient4846">
      <stop
         style="stop-color:#8911b2;stop-opacity:1"
         offset="0"
         id="stop4842" />
      <stop
         style="stop-color:#118ab2;stop-opacity:1"
         offset="1"
         id="stop4844" />
    </linearGradient>
    <linearGradient
       id="linearGradient4702"
       osb:paint="solid">
      <stop
         style="stop-color:#000000;stop-opacity:1;"
         offset="0"
         id="stop4700" />
    </linearGradient>
    <linearGradient
       inkscape:collect="always"
       xlink:href="#linearGradient4846"
       id="linearGradient4848"
       x1="149.70776"
       y1="5.8705468"
       x2="150.26019"
       y2="409.69482"
       gradientUnits="userSpaceOnUse"
       gradientTransform="translate(-224.83786,1.1048544)" />
  </defs>
  <sodipodi:namedview
     pagecolor="#ffffff"
     bordercolor="#666666"
     borderopacity="1"
     objecttolerance="10"
     gridtolerance="10"
     guidetolerance="10"
     inkscape:pageopacity="0"
     inkscape:pageshadow="2"
     inkscape:window-width="915"
     inkscape:window-height="1020"
     id="namedview66"
     showgrid="false"
     inkscape:zoom="1.8101934"
     inkscape:cx="143.69094"
     inkscape:cy="221.84428"
     inkscape:window-x="90"
     inkscape:window-y="29"
     inkscape:window-maximized="0"
     inkscape:current-layer="svg64" />
  <rect
     style="opacity:1;fill:#ffffff;fill-opacity:1;fill-rule:evenodd;stroke:none;stroke-width:2.39019704;stroke-miterlimit:4;stroke-dasharray:none;stroke-opacity:0"
     id="rect4895"
     width="281.73785"
     height="328.69418"
     x="31.488352"
     y="75.476372" />
  <rect
     style="opacity:1;fill:#ffffff;fill-opacity:1;fill-rule:evenodd;stroke:none;stroke-width:1.33299994;stroke-miterlimit:4;stroke-dasharray:none;stroke-opacity:0"
     id="rect4899"
     width="60.214561"
     height="60.214561"
     x="102.19903"
     y="206.95404" />
  <rect
     style="opacity:1;fill:#ffffff;fill-opacity:1;fill-rule:evenodd;stroke:none;stroke-width:1.33299994;stroke-miterlimit:4;stroke-dasharray:none;stroke-opacity:0"
     id="rect4901"
     width="12.705825"
     height="161.86116"
     x="130.37282"
     y="64.427826" />
  <rect
     style="opacity:1;fill:#ffffff;fill-opacity:1;fill-rule:evenodd;stroke:none;stroke-width:1.72493112;stroke-miterlimit:4;stroke-dasharray:none;stroke-opacity:0"
     id="rect4903"
     width="59.462963"
     height="78.46167"
     x="114.28694"
     y="178.2168"
     inkscape:transform-center-x="2.1067338"
     inkscape:transform-center-y="17.762742"
     transform="matrix(0.75935243,-0.65067955,0.67867834,0.73443564,0,0)" />
  <rect
     style="opacity:1;fill:#ffffff;fill-opacity:1;fill-rule:evenodd;stroke:none;stroke-width:5.79203463;stroke-miterlimit:4;stroke-dasharray:none;stroke-opacity:0"
     id="rect4905"
     width="195.55922"
     height="70.710678"
     x="35.355339"
     y="14.156956" />
  <g
     id="g74"
     transform="translate(226.49514,-1.1048543)">
    <path
       style="fill:url(#linearGradient4848);fill-opacity:1;fill-rule:evenodd;stroke:none;stroke-width:1.33333325;stroke-opacity:0"
       d="m -194.44808,409.91791 c -9.07096,-2.46466 -16.13953,-7.92522 -20.54134,-15.86843 l -3.84844,-6.94463 -0.3527,-175.93097 c -0.32095,-160.090396 -0.15581,-176.523762 1.8341,-182.514819 3.02446,-9.1058 9.79548,-16.175955 18.67225,-19.4971813 7.08424,-2.6505551 9.84723,-2.7230703 102.896361,-2.7005406 104.8679701,0.025392 105.84584,0.089095 122.74281,7.9961459 7.4138,3.469336 12.671,8.015827 35.72627,30.896511 29.16518,28.944358 33.60421,35.033194 38.700659,53.084191 2.30276,8.156103 2.44691,16.875013 2.44691,148.000003 v 139.33333 l -3.16397,6.36979 c -3.652259,7.3528 -11.230619,14.34221 -18.469399,17.03405 -7.14967,2.65871 -267.024051,3.35623 -276.643511,0.74255 z m 103.909391,-8.16078 c 8.0598,-2.3935 14.3922,-8.85361 15.9684,-16.29044 0.58616,-2.76568 1.06091,-27.5285 1.05499,-55.0285 -0.0133,-61.21047 0.0796,-60.72363 -14.43476,-75.72213 -5.25496,-5.43024 -11.73201,-10.98946 -14.393451,-12.3538 -5.27309,-2.70318 -18.52007,-5.23138 -27.49435,-5.24734 l -5.66667,-0.0101 v -10.67874 -10.67877 l 68.333331,0.34544 68.3333401,0.34544 v 10 10 l -12.6666701,0.76663 c -7.78617,0.47124 -14.27512,1.60869 -16.84117,2.9521 -5.79822,3.03555 -10.85699,9.4377 -12.10578,15.32052 -0.57917,2.72842 -1.05305,32.26075 -1.05305,65.62741 0,55.7068 0.20049,61.18634 2.45237,67.02294 2.77824,7.2009 8.27174,12.00246 16.2143,14.17202 3.21806,0.87904 19.1307401,1.45979 40.12142,1.46427 38.27923,0.008 44.50883,-0.90393 51.42429,-7.52937 7.06222,-6.76603 7.78762,-12.41162 7.78762,-60.60871 0,-45.52641 -1.20727,-61.15501 -5.33923,-69.11873 -2.99673,-5.77575 -19.08315,-21.66721 -24.86611,-24.56476 -3.91164,-1.95992 -16.21556,-4.29167 -27.12799,-5.14107 l -4.66667,-0.36325 -0.66667,-15.94339 c -0.65348,-15.62806 -0.73258,-15.96166 -3.9999999,-16.86709 -1.83333,-0.50804 -18.78333,-0.98352 -37.6666601,-1.05661 l -34.33334,-0.13291 v -8.46176 -8.46177 l 16.33334,-0.8715 c 20.01558,-1.06797 26.4734,-3.70754 31.66666,-12.94349 3.3102,-5.887 3.3363,-6.19616 3.76027,-44.53717 0.4559901,-41.235114 -0.64837,-55.428926 -5.12176,-65.827581 -3.74956,-8.71611 -30.10475,-35.010744 -39.01453,-38.9249 -7.70692,-3.38573 -35.4457,-5.981878 -49.761431,-4.65731 -11.99909,1.110219 -17.15044,4.155734 -20.95325,12.387708 -2.86229,6.196029 -2.90929,7.331695 -2.90929,70.297773 0,63.56603 0.0202,64.04068 2.98021,70 1.63912,3.3 4.95134,7.33293 7.36047,8.96207 4.98366,3.37009 18.029241,5.63821 32.659311,5.67818 l 9.66667,0.0264 v 8.58472 8.58473 l -34.464631,0.41527 c -26.43565,0.31853 -34.96774,0.83337 -36.6242,2.20996 -1.7071,1.41866 -2.2383,4.91056 -2.53536,16.66666 l -0.37581,14.87199 -12,0.77508 c -7.08661,0.45772 -13.70925,1.66645 -16.17451,2.95211 -5.7932,3.02118 -10.85608,9.42501 -12.10577,15.31206 -0.57918,2.72842 -1.05305,32.56075 -1.05305,66.29408 0,66.37487 0.13476,67.77 7.20002,74.53895 6.76845,6.48458 12.22158,7.27449 50.89131,7.37185 27.92202,0.0703 36.861281,-0.33743 42.207841,-1.92519 z m -75.398081,-31.14585 c -1.06183,-0.67321 -1.59329,-2.92377 -1.33333,-5.64624 l 0.43224,-4.52685 h 35.33333 35.333331 l 0.42968,3.74729 c 0.85523,7.45863 0.24704,7.58791 -35.592931,7.56563 -18.06021,-0.0107 -33.63125,-0.52415 -34.60232,-1.13983 z m 152.809121,-6.27664 c -1.1134,-2.44365 -1.15972,-4.08127 -0.16027,-5.66667 1.24326,-1.97216 5.2983101,-2.27098 35.09656,-2.58637 35.46237,-0.37533 37.35349,-0.0925 37.35349,5.58651 0,5.87253 -1.39824,6.10341 -36.96191,6.10341 h -33.76192 z M -166.74262,341.67628 c -2.23421,-2.23421 -2.59072,-4.39547 -1.28592,-7.79571 0.70959,-1.84916 5.12811,-2.10905 35.85735,-2.10905 30.72923,0 35.147751,0.25989 35.857341,2.10905 1.3048,3.40024 0.94829,5.5615 -1.28592,7.79571 -1.79006,1.79007 -6.825391,2.09524 -34.571421,2.09524 -27.74604,0 -32.78137,-0.30517 -34.57143,-2.09524 z m 154.666661,0 c -2.49536,-2.49536 -2.70973,-6.09027 -0.49524,-8.30476 1.16142,-1.16141 10.9905201,-1.6 35.85735,-1.6 36.75413,0 35.87598,-0.16471 35.87598,6.7288 0,4.66769 -4.2534,5.2712 -37.15043,5.2712 -27.3062399,0 -32.29932,-0.30691 -34.08766,-2.09524 z M -167.23786,312.83819 c -2.44949,-2.44949 -1.90381,-7.47692 0.97901,-9.01976 1.57223,-0.84143 15.06804,-1.38024 34.57143,-1.38024 27.30623,0 32.299321,0.30691 34.087651,2.09524 2.49536,2.49536 2.70974,6.09027 0.49524,8.30476 -2.27636,2.27636 -67.856971,2.27636 -70.133331,0 z m 154.666661,0 c -2.21449,-2.21449 -2.00012,-5.8094 0.49524,-8.30476 1.78834,-1.78833 6.7814201,-2.09524 34.08766,-2.09524 19.50338,0 32.99919,0.53881 34.57142,1.38024 2.88283,1.54284 3.42851,6.57027 0.97901,9.01976 -2.27636,2.27636 -67.85697,2.27636 -70.13333,0 z M -102.59398,146.9043 c -1.9643,-1.96431 -0.86373,-8.39734 1.66846,-9.75254 1.571791,-0.84118 15.046911,-1.38024 34.503401,-1.38024 34.8435,0 35.53314,0.15086 34.6806,7.58604 l -0.42968,3.7473 -34.75612,0.355 c -19.11586,0.19524 -35.165861,-0.0548 -35.666661,-0.55556 z m 0,-28 c -1.49087,-1.49087 -1.03388,-7.80944 0.68945,-9.53278 1.88199,-1.88198 65.912271,-2.29107 68.832241,-0.43976 1.06183,0.67322 1.59329,2.92378 1.33333,5.64625 l -0.43224,4.52685 -34.75612,0.35499 c -19.11586,0.19525 -35.165861,-0.0547 -35.666661,-0.55555 z m 1.20734,-29.20537 c -2.47973,-2.479726 -2.61612,-3.838439 -0.73764,-7.348398 1.31016,-2.448061 3.136781,-2.579012 35.974591,-2.579012 h 34.59436 l 0.8884,3.539703 c 1.91303,7.622095 1.31525,7.760504 -35.19752,8.149611 -29.05572,0.309638 -33.68002,0.08027 -35.522191,-1.761904 z m 184.427121,8.804366 c 1.75719,-0.940417 2.78832,-2.805237 2.78832,-5.042697 0,-2.843617 -5.75589,-9.328064 -28.91275,-32.572398 C 41.014041,44.926117 26.164041,30.971977 23.916061,29.879 c -5.9465,-2.891203 -7.9029,-0.4518 -7.60432,9.481724 0.3082,10.254349 2.61746,29.086814 4.38206,35.736632 3.25068,12.250054 10.38241,21.373671 17.78745,22.755447 17.37174,3.241557 39.12442,3.559107 44.55923,0.650493 z"
       id="path76"
       inkscape:connector-curvature="0" />
  </g>
</svg>
