<?xml version="1.0" encoding="UTF-8" standalone="no"?>
<!-- Created with Inkscape (http://www.inkscape.org/) -->

<svg
   xmlns:dc="http://purl.org/dc/elements/1.1/"
   xmlns:cc="http://creativecommons.org/ns#"
   xmlns:rdf="http://www.w3.org/1999/02/22-rdf-syntax-ns#"
   xmlns:svg="http://www.w3.org/2000/svg"
   xmlns="http://www.w3.org/2000/svg"
   xmlns:xlink="http://www.w3.org/1999/xlink"
   xmlns:sodipodi="http://sodipodi.sourceforge.net/DTD/sodipodi-0.dtd"
   xmlns:inkscape="http://www.inkscape.org/namespaces/inkscape"
   version="1.1"
   id="svg64"
   width="429.33334"
   height="181.33333"
   viewBox="0 0 429.33334 181.33333"
   sodipodi:docname="name.svg"
   inkscape:version="0.92.5 (2060ec1f9f, 2020-04-08)">
  <metadata
     id="metadata70">
    <rdf:RDF>
      <cc:Work
         rdf:about="">
        <dc:format>image/svg+xml</dc:format>
        <dc:type
           rdf:resource="http://purl.org/dc/dcmitype/StillImage" />
        <dc:title></dc:title>
      </cc:Work>
    </rdf:RDF>
  </metadata>
  <defs
     id="defs68">
    <linearGradient
       inkscape:collect="always"
       id="linearGradient84">
      <stop
         style="stop-color:#8911b2;stop-opacity:1"
         offset="0"
         id="stop80" />
      <stop
         style="stop-color:#118ab2;stop-opacity:1"
         offset="1"
         id="stop82" />
    </linearGradient>
    <linearGradient
       inkscape:collect="always"
       xlink:href="#linearGradient84"
       id="linearGradient86"
       x1="210.85948"
       y1="3.2742052"
       x2="211.44521"
       y2="178.40472"
       gradientUnits="userSpaceOnUse" />
  </defs>
  <sodipodi:namedview
     pagecolor="#ffffff"
     bordercolor="#666666"
     borderopacity="1"
     objecttolerance="10"
     gridtolerance="10"
     guidetolerance="10"
     inkscape:pageopacity="0"
     inkscape:pageshadow="2"
     inkscape:window-width="915"
     inkscape:window-height="1020"
     id="namedview66"
     showgrid="false"
     inkscape:zoom="1.7072981"
     inkscape:cx="214.66667"
     inkscape:cy="90.666664"
     inkscape:window-x="90"
     inkscape:window-y="29"
     inkscape:window-maximized="0"
     inkscape:current-layer="svg64" />
  <rect
     style="opacity:1;fill:#ffffff;fill-opacity:1;fill-rule:evenodd;stroke:none;stroke-width:1.4788543;stroke-miterlimit:4;stroke-dasharray:none;stroke-opacity:1"
     id="rect912"
     width="396.53299"
     height="156.38745"
     x="18.743065"
     y="12.645739" />
  <g
     id="g74"
     transform="translate(1.1714415,1.1714426)"
     style="fill-opacity:1;fill:url(#linearGradient86)">
    <path
       style="fill:url(#linearGradient86);fill-opacity:1;stroke-width:1.33333337"
       d="m 17.209712,175.56314 c -3.857921,-2.0375 -7.250325,-5.32121 -9.8763786,-9.55994 l -4,-6.45643 -0.393614,-64.605032 C 2.485958,20.464537 2.695462,18.296725 11.16613,9.8201613 14.398598,6.5854429 18.877779,3.6955945 22.0044,2.8275974 29.221847,0.82392533 401.09114,0.72548636 408.29194,2.7253417 c 6.39332,1.7756012 12.47767,6.9425483 15.76653,13.3892623 2.48872,4.87829 2.6082,8.256584 2.6082,73.745477 0,45.250569 -0.48314,69.911739 -1.41816,72.386449 -1.90289,5.03643 -7.49513,10.77205 -13.52872,13.87557 -4.80026,2.46915 -10.63265,2.54456 -196.79029,2.54456 H 23.08609 Z M 298.59634,165.40366 c 7.9562,-7.9562 6.09048,-25.48009 -4.83402,-45.40366 -0.20105,-0.36667 2.33863,-2.46667 5.64374,-4.66667 3.3051,-2.2 6.90466,-5.35 7.99901,-7 2.20501,-3.32457 4.59493,-3.96558 4.59493,-1.23242 0,0.97217 1.54834,3.22217 3.44075,5 2.69272,2.52968 4.88757,3.23242 10.0957,3.23242 6.21885,0 6.99973,-0.39315 11.91708,-6 2.89417,-3.3 6.30112,-7.18229 7.57097,-8.62732 1.26987,-1.445028 2.63515,-3.841877 3.03397,-5.326332 0.39882,-1.484456 1.75947,-2.898206 3.02367,-3.141669 2.02773,-0.390505 2.19884,0.405695 1.45229,6.757695 -1.14518,9.743656 1.59267,15.198766 8.25539,16.448696 5.68456,1.06643 9.55443,-1.33238 16.27231,-10.08671 4.58129,-5.970053 5.09082,-9.701608 1.42122,-10.408306 -1.37729,-0.265244 -3.44873,1.796972 -5.75088,5.725296 -3.8075,6.497 -8.41162,9.57872 -12.16112,8.1399 -1.91957,-0.73661 -2.15778,-2.20977 -1.56049,-9.650738 0.59645,-7.430458 0.31651,-9.16982 -1.81965,-11.305972 -1.3885,-1.388496 -3.59299,-2.524538 -4.89888,-2.524538 -1.41376,0 -2.98519,-1.61828 -3.88419,-4 -2.00604,-5.314611 -6.3102,-5.346135 -9.04056,-0.06621 -2.78891,5.393163 -2.58764,9.504479 0.50488,10.313191 2.35727,0.61644 2.24661,1.108832 -1.54504,6.875175 -5.20137,7.910262 -8.74397,10.810972 -13.24872,10.848192 -4.08092,0.0337 -6.06267,-1.97412 -3.07867,-3.11919 2.70764,-1.03902 7.32222,-8.860433 7.32832,-12.421049 0.005,-3.065066 -5.68813,-8.430106 -8.94605,-8.430106 -2.46732,0 -10.85958,8.49948 -14.93664,15.127485 -2.92287,4.75164 -12.37268,12.87251 -14.97904,12.87251 -0.62331,0 -1.13328,-3.51694 -1.13328,-7.81543 0,-6.326179 1.01154,-9.974017 5.30848,-19.143436 9.95656,-21.246744 12.3345,-43.615175 5.41918,-50.976199 -4.0492,-4.31018 -7.15386,-4.305447 -10.55318,0.01609 -3.6948,4.697179 -5.17883,13.752505 -6.19224,37.783948 -0.79424,18.834417 -1.14507,20.983667 -4.24398,25.999999 -4.33136,7.011378 -8.16082,10.068218 -12.65957,10.105388 -4.08092,0.0337 -6.06267,-1.97413 -3.07867,-3.1192 2.70764,-1.03902 7.32222,-8.86043 7.32832,-12.421046 0.005,-3.09645 -5.69992,-8.430112 -9.01738,-8.430112 -2.6111,0 -9.94682,7.850014 -15.61282,16.707388 -4.83162,7.55306 -8.87338,9.91359 -12.21946,7.1366 -1.60715,-1.33382 -1.96084,-3.92276 -1.60894,-11.776823 0.24811,-5.536941 -0.0153,-10.790961 -0.58536,-11.6756 -1.60412,-2.489384 -4.95105,-0.468041 -4.95105,2.990135 0,4.579 -10.09605,19.090948 -13.95561,20.059638 -5.45759,1.36976 -6.44547,-0.32643 -5.68775,-9.765925 0.58357,-7.270157 0.29555,-9.023229 -1.83211,-11.150875 -1.38849,-1.388496 -3.59298,-2.524538 -4.89888,-2.524538 -1.41376,0 -2.98518,-1.61828 -3.88418,-4 -2.00604,-5.314611 -6.3102,-5.346135 -9.04056,-0.06621 -2.8142,5.442053 -2.5896,9.503967 0.5712,10.330534 2.10024,0.549227 2.45116,1.452699 1.8098,4.6595 -0.71835,3.591706 -0.49104,3.934344 2.3399,3.52717 2.0533,-0.29533 3.40468,-1.599089 3.91532,-3.777323 0.42888,-1.829483 1.83068,-3.528715 3.1151,-3.776071 2.06804,-0.398268 2.23272,0.323675 1.43886,6.30802 C 199.09335,109.57827 203.33202,116 212.08296,116 c 1.41682,0 4.96906,-2.16196 7.89386,-4.80434 l 5.31784,-4.80434 1.2685,3.33645 c 0.6977,1.83505 2.6399,4.29701 4.31603,5.47101 5.12328,3.58848 8.98176,2.62448 15.47169,-3.86545 6.5769,-6.5769 6.98246,-6.82273 6.98246,-4.23242 0,0.97217 1.54833,3.22217 3.44074,5 2.6679,2.50635 4.89747,3.23242 9.92595,3.23242 5.58636,0 7.14224,-0.63684 11.22592,-4.59489 l 4.74072,-4.59489 v 21.4129 c 0,30.91688 2.40423,40.44355 10.20665,40.44355 1.71967,0 4.29503,-1.16835 5.72302,-2.59634 z m -7.50374,-5.737 C 290.50698,158.75 289.88464,150.8 289.70964,142 l -0.31817,-16 3.403,7.02324 c 1.87165,3.86278 3.71471,10.16278 4.09568,14 0.99577,10.02957 -2.54051,17.74157 -5.79755,12.64342 z M 258.89288,97.31451 c 0.29762,-3.12578 1.19716,-4.769354 2.77379,-5.068025 3.30847,-0.626744 3.02169,4.050588 -0.44045,7.183789 -2.76288,2.500366 -2.77206,2.492046 -2.33334,-2.115764 z m 58.66667,0 c 0.29761,-3.12578 1.19716,-4.769354 2.77379,-5.068025 3.30847,-0.626744 3.02169,4.050588 -0.44046,7.183789 -2.76288,2.500366 -2.77205,2.492046 -2.33333,-2.115764 z M 289.90908,65.333332 c 0.93043,-17.271977 2.61568,-26.666666 4.78358,-26.666666 5.28445,0 1.54141,36.021778 -4.36424,41.999999 -0.8676,0.878262 -1.01072,-4.355073 -0.41934,-15.333333 z M 104.6165,112.12418 c 10.04875,-4.94698 21.79573,-16.907318 25.53493,-25.998706 l 2.51524,-6.115479 8,-0.152587 c 11.71761,-0.223492 14.01636,0.112613 20.90493,3.056517 7.50347,3.206695 10.12035,5.879172 11.24035,11.479119 0.71881,3.594089 0.16949,4.892181 -3.7134,8.775076 -2.50636,2.50635 -6.92885,5.21551 -9.82777,6.02034 -7.62032,2.11564 -19.9106,1.81076 -28.92101,-0.71743 -12.34711,-3.46442 -14.5642,1.99902 -2.44822,6.03303 18.29669,6.09187 43.50916,0.56246 49.63611,-10.88583 0.8654,-1.61702 1.57345,-5.409573 1.57345,-8.427893 0,-6.738881 -3.90415,-12.63334 -11.01445,-16.629554 l -5.1365,-2.886871 5.73482,-5.503624 c 6.01938,-5.776735 8.38517,-12.351778 6.76584,-18.803738 -1.22978,-4.899812 -8.32268,-12.356789 -13.55216,-14.247797 -3.40511,-1.231302 -4.57532,-2.438503 -4.57532,-4.719938 0,-3.420017 -3.64939,-4.216096 -6.45696,-1.408525 -1.08636,1.086369 -6.57315,1.724608 -15.93334,1.853412 -16.76878,0.230755 -26.04004,2.442867 -41.072808,9.799929 -13.207725,6.463885 -26.043374,18.585068 -31.843087,30.070617 -5.401219,10.696381 -6.269257,23.452876 -2.100605,30.869992 3.05721,5.43957 9.328213,10.4469 15.604747,12.46021 7.162657,2.29756 19.958313,0.57289 29.085213,-3.92027 z m -30.67238,-3.8911 C 58.137708,100.83925 60.291332,79.708668 78.730651,61.26935 92.173875,47.826126 115.66795,38.666666 136.70668,38.666666 h 7.13878 l -5.10112,10.333333 c -2.80562,5.683333 -6.11907,13.483333 -7.36322,17.333333 -1.3537,4.188999 -3.03901,7 -4.19679,7 -2.58721,0 -3.84414,3.598409 -2.02329,5.792401 3.22012,3.880007 -12.62192,22.433897 -23.77417,27.843847 -8.289475,4.02122 -20.359359,4.57693 -27.44275,1.2635 z m 64.75339,-43.656067 c 1.40464,-4.082642 4.51081,-10.982642 6.90263,-15.333333 4.81002,-8.749433 7.09233,-9.638703 14.79941,-5.766399 12.58921,6.325253 11.70524,19.000431 -1.8058,25.893251 -3.56165,1.817017 -7.82621,2.629467 -13.80215,2.629467 h -8.64797 z m 97.04703,6.511572 c 0.49276,-5.086592 -3.39851,-8.081175 -7.58767,-5.839205 -6.25457,3.347345 -4.06847,11.173291 2.93172,10.495156 3.69119,-0.357579 4.29837,-0.96476 4.65595,-4.655951 z"
       id="path78"
       inkscape:connector-curvature="0" />
    <path
       style="fill:url(#linearGradient86);fill-opacity:1;stroke-width:1.33333337"
       d="M 20.873586,176.73112 C 14.539455,174.46117 9.8626143,170.20489 6.5024998,163.65233 4.0449643,158.85989 3.9474537,155.55145 4.2989237,88.886997 L 4.6666667,19.135992 8.3348205,13.594336 C 10.352305,10.546425 14.378403,6.8408265 17.281703,5.3596731 22.505722,2.6945778 24.562046,2.6666666 215.68584,2.6666666 h 193.12542 l 6.06889,3.8487786 c 4.03415,2.5583829 7.02738,5.8287468 8.92771,9.7542988 2.80824,5.801037 2.85881,7.107961 2.85881,73.868701 0,67.834005 -0.005,67.974455 -3,73.894535 -1.75386,3.46759 -5.40141,7.60027 -8.78126,9.94918 L 409.10413,178 217.55207,178.28412 c -159.884772,0.23716 -192.399566,-0.0196 -196.678484,-1.553 z M 300.53484,163.5642 c 2.30822,-3.1088 2.7985,-5.68362 2.7985,-14.69703 0,-9.70417 -0.50074,-11.94476 -4.47154,-20.00854 l -4.47152,-9.08064 3.13819,-2.19606 c 1.72601,-1.20784 5.35077,-4.19389 8.05504,-6.63568 l 4.91683,-4.43962 2.10186,3.20785 c 3.99952,6.10404 13.37771,8.08812 20.59331,4.35679 2.05136,-1.0608 6.23738,-5.4108 9.30227,-9.66667 3.06488,-4.25586 6.43763,-8.937935 7.49497,-10.404602 1.74851,-2.425401 1.92628,-1.846913 1.96486,6.393942 0.0365,7.81062 0.49389,9.5121 3.31513,12.33333 6.92985,6.92987 16.96612,2.74022 24.59659,-10.26787 2.70614,-4.613328 2.73613,-4.996803 0.56096,-7.171978 -2.17518,-2.175174 -2.44416,-2.10714 -5.03083,1.272438 -8.51164,11.12077 -11.20461,13.47328 -13.66183,11.93458 -1.99729,-1.2507 -2.33045,-2.96641 -1.96805,-10.135196 0.48231,-9.541254 -1.39873,-13.025912 -7.03148,-13.025912 -2.36105,0 -3.26061,-0.945959 -3.88944,-4.090041 -0.70523,-3.526154 -1.32564,-4.031672 -4.5,-3.666667 -2.76652,0.318109 -4.31503,1.720117 -6.22807,5.638826 l -2.54606,5.215452 3.14152,2.543859 c 1.75132,1.418129 2.57749,2.945388 1.86693,3.451215 -0.70103,0.499045 -2.94336,3.481325 -4.98295,6.627284 -3.98153,6.14128 -8.74298,9.15008 -12.31246,7.78034 -1.89542,-0.72734 -1.60801,-1.54256 1.98776,-5.6379 5.36546,-6.110927 5.35025,-13.351034 -0.0344,-16.358828 -5.15874,-2.88161 -9.6473,-1.027875 -14.73889,6.087009 -5.37996,7.517899 -17.89102,20.409449 -19.80705,20.409449 -0.75867,0 -1.36165,-3.19074 -1.36165,-7.20528 0,-5.64644 1.14778,-9.612812 5.30526,-18.333336 7.28114,-15.272493 9.72254,-25.721566 9.15664,-39.189946 -0.54296,-12.922374 -2.95642,-17.00287 -9.66226,-16.336134 -8.0592,0.801296 -11.43532,14.540214 -11.45619,46.620254 -0.005,8.555554 -0.46012,15.755554 -1.01012,16 -0.55,0.244444 -2.67437,3.018413 -4.72084,6.164372 -3.99627,6.14335 -8.75781,9.14917 -12.32493,7.78034 -1.89876,-0.72862 -1.62475,-1.52348 1.91497,-5.55501 5.14991,-5.865417 5.65467,-12.726693 1.16745,-15.869653 -6.59733,-4.620957 -12.05562,-1.41902 -20.3864,11.959048 -3.66001,5.877465 -8.90562,11.298675 -10.9327,11.298675 -3.0222,0 -4.42803,-6.39563 -3.52992,-16.058883 0.7291,-7.844833 0.52868,-9.339091 -1.34931,-10.059743 -2.97151,-1.140272 -6.17165,1.736698 -6.17165,5.548382 0,3.33366 -5.95675,12.974494 -10.6291,17.202914 -2.22097,2.00995 -3.36445,2.26456 -5.11562,1.13906 -1.82004,-1.16978 -2.1711,-3.11491 -1.81904,-10.079146 0.4823,-9.541254 -1.39874,-13.025912 -7.03148,-13.025912 -2.36106,0 -3.26062,-0.945959 -3.88944,-4.090041 -0.70523,-3.526154 -1.32564,-4.031672 -4.5,-3.666667 -2.76652,0.318109 -4.31503,1.720117 -6.22807,5.638826 l -2.54607,5.215452 2.98108,2.413942 c 1.97558,1.599716 2.71178,3.262486 2.18264,4.929637 -0.4803,1.513317 0.0713,3.237555 1.38448,4.327359 2.27547,1.88848 3.55766,0.89878 8.1322,-6.277088 1.32052,-2.071435 1.60148,-0.964052 1.66667,6.569188 0.0673,7.78364 0.53965,9.52185 3.35115,12.33333 4.72456,4.72457 11.33001,4.41807 17.27486,-0.80159 l 4.64039,-4.07432 2.02336,3.91275 c 2.27137,4.39235 4.47699,5.56922 10.43748,5.56922 3.04764,0 5.40068,-1.37003 9.18431,-5.34744 l 5.0869,-5.34745 2.05868,3.14195 c 5.54127,8.45704 20.45691,8.04438 26.60702,-0.73612 1.91733,-2.73738 2.08093,-1.00495 2.08093,22.03521 0,31.49442 1.82069,37.4436 11.20151,36.60121 2.43286,-0.21847 4.90657,-1.74592 6.66666,-4.11649 z m -9.08981,-4.4206 c -0.47652,-1.2418 -1.21116,-8.90711 -1.63255,-17.03404 C 289.13159,128.97718 289.26162,127.63 290.98132,130 c 4.99484,6.88362 7.09218,26.6193 3.17439,29.87077 -1.43249,1.18887 -2.03773,1.02651 -2.71068,-0.72717 z M 258.66667,98.163258 c 0,-3.725786 3.25967,-7.106496 4.66289,-4.836036 0.82176,1.329636 -2.53641,8.006108 -4.02696,8.006108 -0.34976,0 -0.63593,-1.426532 -0.63593,-3.170072 z m 58.66667,0 c 0,-3.725786 3.25966,-7.106496 4.66289,-4.836036 0.82176,1.329636 -2.53641,8.006108 -4.02696,8.006108 -0.34976,0 -0.63593,-1.426532 -0.63593,-3.170072 z M 291.23308,61.999999 c 0.49587,-16.970181 1.28927,-22 3.4703,-22 3.72525,0 2.83684,19.4913 -1.45856,32 l -2.5182,7.333333 z M 105.27199,112.72468 c 9.08023,-4.63493 20.11942,-15.79795 24.25033,-24.522382 l 3.14435,-6.640817 8.26895,-0.929176 c 20.3874,-2.290916 36.13528,8.734615 29.68646,20.784325 -3.6535,6.82665 -20.31066,10.68871 -33.95541,7.87278 -12.47237,-2.57399 -16,-2.42939 -16,0.65587 0,4.21143 13.24835,7.65974 27.43243,7.14016 9.59544,-0.35148 12.67904,-1.0615 19.19064,-4.41878 9.55386,-4.9258 13.16033,-10.54145 12.27546,-19.114146 -0.66614,-6.453592 -6.33329,-13.499767 -13.11797,-16.310079 l -3.86936,-1.602738 4.52051,-3.071762 C 175.89031,66.59366 178.68267,53.690166 173,45.296487 c -1.65,-2.437158 -5.69294,-5.851574 -8.98432,-7.587589 -3.46341,-1.826759 -5.99092,-4.106075 -6,-5.410833 -0.0191,-2.733199 -4.11422,-3.76275 -6.63744,-1.668674 -1.06805,0.886407 -8.38016,1.684699 -17.60261,1.921746 -25.64986,0.659284 -43.475055,7.845617 -59.816884,24.115529 -23.558683,23.455007 -23.539869,50.424954 0.04125,59.137624 2.2,0.81285 8.5,1.28765 14,1.05511 7.744136,-0.32743 11.640462,-1.26016 17.271994,-4.13472 z m -28.244441,-3.58147 c -2.777764,-0.77934 -6.750088,-3.4197 -9,-5.98221 C 59.344177,93.271184 64.580056,75.232259 80.428211,60.437596 94.423151,47.372956 113.25869,40.059919 133.01676,40.019707 l 9.68343,-0.01971 -4.49692,9 c -2.47329,4.95 -5.51973,12.121911 -6.76985,15.937578 -1.44219,4.40196 -3.21598,7.236894 -4.85317,7.756518 -2.6499,0.841044 -3.79306,7.305904 -1.29188,7.305904 1.94593,0 -3.47769,8.513997 -10.15383,15.939475 C 105.06608,107.13803 89.323024,112.59285 77.027549,109.14321 Z M 137.93587,68.333332 c 1.53804,-6.325021 11.44624,-25.769073 13.54084,-26.572849 2.3866,-0.915826 11.61376,3.024511 14.46795,6.178352 9.25552,10.227248 -3.05286,23.798832 -21.75587,23.988652 -7.13297,0.0724 -7.14309,0.06657 -6.25292,-3.594155 z m 96.78409,6.558291 c 3.63468,-2.943191 2.82683,-8.887662 -1.38972,-10.225942 -7.24836,-2.300537 -12.43496,5.595706 -6.71686,10.225942 1.65846,1.34294 3.48244,2.441709 4.05329,2.441709 0.57085,0 2.39483,-1.098769 4.05329,-2.441709 z"
       id="path76"
       inkscape:connector-curvature="0" />
  </g>
</svg>
