<?xml version="1.0" encoding="UTF-8" standalone="no"?>
<!-- Created with Inkscape (http://www.inkscape.org/) -->

<svg
   xmlns:dc="http://purl.org/dc/elements/1.1/"
   xmlns:cc="http://creativecommons.org/ns#"
   xmlns:rdf="http://www.w3.org/1999/02/22-rdf-syntax-ns#"
   xmlns:svg="http://www.w3.org/2000/svg"
   xmlns="http://www.w3.org/2000/svg"
   xmlns:xlink="http://www.w3.org/1999/xlink"
   xmlns:sodipodi="http://sodipodi.sourceforge.net/DTD/sodipodi-0.dtd"
   xmlns:inkscape="http://www.inkscape.org/namespaces/inkscape"
   version="1.1"
   id="svg64"
   width="259.66666"
   height="292"
   viewBox="0 0 259.66665 292"
   sodipodi:docname="save.svg"
   inkscape:version="0.92.5 (2060ec1f9f, 2020-04-08)">
  <metadata
     id="metadata70">
    <rdf:RDF>
      <cc:Work
         rdf:about="">
        <dc:format>image/svg+xml</dc:format>
        <dc:type
           rdf:resource="http://purl.org/dc/dcmitype/StillImage" />
        <dc:title></dc:title>
      </cc:Work>
    </rdf:RDF>
  </metadata>
  <defs
     id="defs68">
    <linearGradient
       inkscape:collect="always"
       id="linearGradient86">
      <stop
         style="stop-color:#8911b2;stop-opacity:1"
         offset="0"
         id="stop82" />
      <stop
         style="stop-color:#118ab2;stop-opacity:1"
         offset="1"
         id="stop84" />
    </linearGradient>
    <linearGradient
       inkscape:collect="always"
       xlink:href="#linearGradient86"
       id="linearGradient88"
       x1="99.894737"
       y1="2.0956938"
       x2="101.99043"
       y2="291.30142"
       gradientUnits="userSpaceOnUse" />
    <linearGradient
       inkscape:collect="always"
       xlink:href="#linearGradient86"
       id="linearGradient1100"
       gradientUnits="userSpaceOnUse"
       x1="99.894737"
       y1="2.0956938"
       x2="101.99043"
       y2="291.30142" />
    <linearGradient
       inkscape:collect="always"
       xlink:href="#linearGradient86"
       id="linearGradient1102"
       gradientUnits="userSpaceOnUse"
       x1="99.894737"
       y1="2.0956938"
       x2="101.99043"
       y2="291.30142" />
    <linearGradient
       inkscape:collect="always"
       xlink:href="#linearGradient86"
       id="linearGradient1104"
       gradientUnits="userSpaceOnUse"
       x1="99.894737"
       y1="2.0956938"
       x2="101.99043"
       y2="291.30142" />
  </defs>
  <sodipodi:namedview
     pagecolor="#ffffff"
     bordercolor="#666666"
     borderopacity="1"
     objecttolerance="10"
     gridtolerance="10"
     guidetolerance="10"
     inkscape:pageopacity="0"
     inkscape:pageshadow="2"
     inkscape:window-width="915"
     inkscape:window-height="1020"
     id="namedview66"
     showgrid="false"
     inkscape:zoom="1.4315069"
     inkscape:cx="217.71882"
     inkscape:cy="174.81621"
     inkscape:window-x="1005"
     inkscape:window-y="29"
     inkscape:window-maximized="0"
     inkscape:current-layer="svg64" />
  <ellipse
     style="opacity:1;fill:#ffffff;fill-opacity:1;fill-rule:evenodd;stroke:none;stroke-width:1.34643817;stroke-miterlimit:4;stroke-dasharray:none;stroke-opacity:1"
     id="path898"
     cx="114.38737"
     cy="-129.66588"
     rx="41.781956"
     ry="27.681278"
     transform="matrix(0.5398004,0.84179304,-0.93800213,0.3466295,0,0)" />
  <rect
     style="opacity:1;fill:#ffffff;fill-opacity:1;fill-rule:evenodd;stroke:none;stroke-width:1.33299994;stroke-miterlimit:4;stroke-dasharray:none;stroke-opacity:1"
     id="rect900"
     width="132.0287"
     height="178.83253"
     x="56.583733"
     y="71.253586" />
  <rect
     style="opacity:1;fill:#ffffff;fill-opacity:1;fill-rule:evenodd;stroke:none;stroke-width:1.10845554;stroke-miterlimit:4;stroke-dasharray:none;stroke-opacity:1"
     id="rect902"
     width="64.966507"
     height="102.40441"
     x="166.23055"
     y="161.74501" />
  <rect
     style="opacity:1;fill:#ffffff;fill-opacity:1;fill-rule:evenodd;stroke:none;stroke-width:1.33299994;stroke-miterlimit:4;stroke-dasharray:none;stroke-opacity:1"
     id="rect923"
     width="77.057724"
     height="45.691277"
     x="135.09799"
     y="244.08591" />
  <rect
     style="opacity:1;fill:#ffffff;fill-opacity:1;fill-rule:evenodd;stroke:none;stroke-width:1.51887143;stroke-miterlimit:4;stroke-dasharray:none;stroke-opacity:1"
     id="rect927"
     width="38.942902"
     height="37.313438"
     x="250.67223"
     y="-229.5242"
     transform="matrix(-0.04419073,0.99902311,-0.99999546,-0.00301492,0,0)" />
  <rect
     style="opacity:1;fill:#ffffff;fill-opacity:1;fill-rule:evenodd;stroke:none;stroke-width:0.794698;stroke-miterlimit:4;stroke-dasharray:none;stroke-opacity:1"
     id="rect946"
     width="23.139952"
     height="5.1519141"
     x="-258.11334"
     y="-230.48772"
     transform="matrix(-0.99924062,-0.03896384,0.03896164,-0.99924071,0,0)" />
  <rect
     style="opacity:1;fill:#ffffff;fill-opacity:1;fill-rule:evenodd;stroke:none;stroke-width:0.794698;stroke-miterlimit:4;stroke-dasharray:none;stroke-opacity:1"
     id="rect946-6"
     width="23.139952"
     height="5.1519141"
     x="40.145317"
     y="-348.49744"
     transform="matrix(-0.60720238,0.79454721,-0.79454855,-0.60720063,0,0)" />
  <rect
     style="opacity:1;fill:#ffffff;fill-opacity:1;fill-rule:evenodd;stroke:none;stroke-width:0.794698;stroke-miterlimit:4;stroke-dasharray:none;stroke-opacity:1"
     id="rect946-6-7"
     width="23.139952"
     height="5.1519141"
     x="57.742271"
     y="-349.09116"
     transform="matrix(-0.61459442,0.78884327,-0.78884462,-0.61459269,0,0)" />
  <rect
     style="opacity:1;fill:#ffffff;fill-opacity:1;fill-rule:evenodd;stroke:none;stroke-width:0.794698;stroke-miterlimit:4;stroke-dasharray:none;stroke-opacity:1"
     id="rect946-6-7-5"
     width="23.139952"
     height="5.1519141"
     x="74.687965"
     y="-346.87088"
     transform="matrix(-0.60720238,0.79454721,-0.79454855,-0.60720063,0,0)" />
  <rect
     style="opacity:1;fill:#ffffff;fill-opacity:1;fill-rule:evenodd;stroke:none;stroke-width:0.794698;stroke-miterlimit:4;stroke-dasharray:none;stroke-opacity:1"
     id="rect946-6-7-5-3"
     width="23.139952"
     height="5.1519141"
     x="74.193771"
     y="-348.72623"
     transform="matrix(-0.61063716,0.79191051,-0.79191186,-0.61063542,0,0)" />
  <rect
     style="opacity:1;fill:#ffffff;fill-opacity:1;fill-rule:evenodd;stroke:none;stroke-width:0.794698;stroke-miterlimit:4;stroke-dasharray:none;stroke-opacity:1"
     id="rect946-6-7-56"
     width="23.139952"
     height="5.1519141"
     x="53.174644"
     y="-346.13736"
     transform="matrix(-0.61459442,0.78884327,-0.78884462,-0.61459269,0,0)" />
  <rect
     style="opacity:1;fill:#ffffff;fill-opacity:1;fill-rule:evenodd;stroke:none;stroke-width:0.794698;stroke-miterlimit:4;stroke-dasharray:none;stroke-opacity:1"
     id="rect946-6-7-2"
     width="23.139952"
     height="5.1519141"
     x="33.135937"
     y="-346.35434"
     transform="matrix(-0.61459442,0.78884327,-0.78884462,-0.61459269,0,0)" />
  <rect
     style="opacity:1;fill:#ffffff;fill-opacity:1;fill-rule:evenodd;stroke:none;stroke-width:0.96110648;stroke-miterlimit:4;stroke-dasharray:none;stroke-opacity:1"
     id="rect1038"
     width="6.2870817"
     height="6.3307414"
     x="255.79945"
     y="225.19771"
     transform="rotate(2.2626835)" />
  <rect
     style="opacity:1;fill:#ffffff;fill-opacity:1;fill-rule:evenodd;stroke:none;stroke-width:0.96110648;stroke-miterlimit:4;stroke-dasharray:none;stroke-opacity:1"
     id="rect1038-9"
     width="6.2870817"
     height="6.3307414"
     x="342.25958"
     y="34.06052"
     transform="rotate(37.4803)" />
  <g
     id="g74"
     transform="translate(-0.69856653,0.69856464)"
     style="fill:url(#linearGradient88);fill-opacity:1">
    <path
       style="fill:url(#linearGradient1100);fill-opacity:1;stroke-width:1.33333337"
       d="M 18.206919,287.38847 C 11.290824,284.92255 7.200706,280.80799 4.3668874,273.46577 2.1615158,267.75181 2,258.9626 2,144.66667 V 22 L 5.128065,15.647821 C 7.3793834,11.076055 9.9953672,8.2732159 14.461399,5.6478208 L 20.666667,2 82.556022,1.5926045 C 174.99042,0.98414211 172.53234,0.40863861 202.14398,29.591372 223.48807,50.626309 227.59122,56.528697 230.51208,70.398961 231.44143,74.812136 232,94.695081 232,123.36332 v 45.89872 L 212.33334,169.63103 192.66667,170 192,200.66667 l -0.66666,30.66666 -9.8708,0.39587 c -5.65084,0.22663 -10.46756,-0.20089 -11.26667,-1 -0.92477,-0.92477 -19.03205,-1.39587 -53.65322,-1.39587 -47.030601,0 -52.340594,0.21695 -53.089668,2.169 -2.129453,5.54927 -0.173861,5.7822 51.615958,6.14826 L 164.50471,238 184.25236,263.25328 C 195.11356,277.14259 204,288.69259 204,288.91995 c 0,0.22736 -40.65,0.38705 -90.33333,0.35486 -73.017755,-0.0473 -91.315995,-0.40889 -95.459751,-1.88634 z M 171.02582,206.33333 c 1.71228,-4.90878 0.73018,-5 -53.83514,-5 H 64.000001 V 204.66667 208 h 53.222219 c 41.37884,0 53.3516,-0.37088 53.8036,-1.66667 z m -0.4994,-28.16433 c 0.83577,-1.00705 1.14505,-2.80705 0.68726,-4 -0.74941,-1.95296 -6.13044,-2.169 -54.023,-2.169 H 64.000001 v 3.11111 c 0,1.71112 0.4,3.51112 0.888889,4 C 65.377778,179.6 89.004312,180 117.3923,180 c 42.13568,0 51.89358,-0.33625 53.13412,-1.831 z m 0.14025,-32.02635 c 0,-1.75488 -0.94907,-3.55488 -2.10905,-4 -1.15998,-0.44513 -24.4453,-0.80932 -51.74516,-0.80932 -52.021618,0 -55.456334,0.36668 -53.409042,5.70184 0.814356,2.12219 4.954906,2.29816 54.072572,2.29816 h 53.19068 z M 170,118.66667 v -3.33334 l -52.85153,-0.3485 c -47.928614,-0.31604 -52.929594,-0.14505 -53.689668,1.83567 -2.199336,5.73137 -0.58386,5.89559 54.383838,5.52815 L 170,122 Z m 0.66667,-27.190685 c 0,-1.754874 -0.94907,-3.554874 -2.10905,-4 -1.15998,-0.445125 -24.78651,-0.809318 -52.50341,-0.809318 -52.941314,0 -54.761372,0.201758 -52.601228,5.831002 0.749418,1.952952 6.13045,2.168998 54.023008,2.168998 h 53.19068 z M 217.11914,60.13188 c 0.3693,-2.613075 -3.45102,-7.085181 -20.78692,-24.333333 -23.12484,-23.007782 -26.99888,-25.31751 -26.99888,-16.096902 0,9.614474 2.84516,27.650575 5.19933,32.959671 4.23045,9.540479 8.82852,11.197797 30.134,10.861456 11.59123,-0.182985 12.01541,-0.298493 12.45247,-3.390892 z M 194.10147,263.4874 C 184.14567,250.7388 176,239.9388 176,239.4874 c 0,-0.4514 5.1,-0.82073 11.33334,-0.82073 h 11.33333 V 208 177.33333 h 14 14 V 208 238.66667 H 238 c 6.23334,0 11.33334,0.34588 11.33334,0.76861 0,0.83112 -36.09276,47.23139 -36.73926,47.23139 -0.21513,0 -8.5368,-10.43067 -18.49261,-23.17927 z"
       id="path80"
       inkscape:connector-curvature="0" />
    <path
       style="fill:url(#linearGradient1102);fill-opacity:1;stroke-width:1.33333337"
       d="M 19.499687,287.37452 C 12.648353,284.93237 6.0642042,278.36392 4.186985,272.09832 1.7799167,264.06424 2.1672784,25.061764 4.5984159,18.245072 6.9680174,11.600921 10.130504,8.1757259 16.666667,5.1743081 21.61783,2.9007253 26.876486,2.7231337 90.053203,2.6959493 178.89854,2.65772 173.74499,1.3642769 203.45668,31.158069 231.73784,59.517371 231.943,60.192428 231.97686,125 L 232,169.33333 h -19.85734 c -16.87732,0 -19.9788,0.31651 -20.66667,2.10906 -0.44513,1.15997 -0.80932,14.82246 -0.80932,30.3611 v 28.25206 L 127,230.02781 63.333334,230.00008 v 3.33333 3.33334 l 50.128586,0.34917 50.12858,0.34916 14.71905,18.98417 c 8.09548,10.44128 17.23865,22.13416 20.31817,25.98416 l 5.59912,7 -89.78008,-0.0585 c -72.879797,-0.0475 -90.75273,-0.40523 -94.947073,-1.90029 z M 171.33334,204 v -3.33333 l -52.82418,-0.34848 c -45.597634,-0.3008 -53.051035,-0.0751 -54.482499,1.64969 -0.91208,1.09899 -1.307416,2.91263 -0.878524,4.03029 0.683879,1.78216 7.385843,1.98927 54.482503,1.68366 l 53.7027,-0.3485 z m 0,-28 v -3.33333 l -53.25115,-0.34886 c -30.772624,-0.2016 -53.763873,0.16387 -54.465784,0.86579 -0.66805,0.66804 -0.812453,2.4818 -0.320896,4.03056 0.892448,2.81185 0.971214,2.81543 54.46578,2.46755 l 53.57205,-0.34838 z m 0.19101,-28.68364 c 0.42569,-1.10935 0.0333,-2.90935 -0.87177,-4 -2.48872,-2.99873 -106.352806,-2.98232 -107.503744,0.0169 -0.42211,1.1 -0.42211,2.9 0,4 0.664525,1.73176 7.932685,2.00004 54.184494,2.00004 46.45169,0 53.51795,-0.263 54.19102,-2.01697 z m -0.1948,-27.30443 c 0.46341,-1.4601 0.46844,-3.2601 0.0107,-4 -0.53627,-0.86849 -19.71955,-1.34526 -54.12742,-1.34526 -46.144672,0 -53.399479,0.26838 -54.063964,2 -0.42211,1.1 -0.42211,2.9 0,4 0.664482,1.73161 7.918052,2 54.052804,2 52.03448,0 53.30511,-0.0623 54.12791,-2.65474 z m 0.0107,-26.690529 c 0.45728,-0.739894 0.45225,-2.539894 -0.0107,-4 -0.8228,-2.592416 -2.09343,-2.654734 -54.12791,-2.654734 -46.134752,0 -53.388322,0.268388 -54.052804,2 -0.42211,1.1 -0.42211,2.9 0,4 0.664485,1.731621 7.919292,2 54.063964,2 34.40787,0 53.59115,-0.476771 54.12791,-1.345266 z m 45.55568,-30.97969 c 1.5024,-1.5024 1.67992,-2.678019 0.68242,-4.519491 -2.51282,-4.639004 -44.15733,-44.740454 -45.87384,-44.174093 -4.21196,1.389725 -1.99828,30.036496 3.14568,40.707805 3.39826,7.049764 5.75642,8.341339 17.6824,9.684737 12.63956,1.423778 21.88535,0.77903 24.36334,-1.698958 z M 194.66667,263.70463 C 185.5,251.89224 177.8,241.72636 177.55556,241.11379 177.31111,240.5012 181.10056,240 185.97655,240 200.83652,240 200,241.95141 200,207.28643 v -29.9531 h 12.66667 12.66667 v 29.83675 c 0,22.79197 0.40758,30.175 1.72624,31.26939 0.94944,0.78796 6.13046,1.61142 11.51341,1.82993 l 9.78716,0.39727 -17.18007,21.91282 c -9.44904,12.05206 -17.78008,22.06794 -18.51341,22.25751 -0.73333,0.18959 -8.83333,-9.31999 -18,-21.13237 z"
       id="path78"
       inkscape:connector-curvature="0" />
    <path
       style="fill:url(#linearGradient1104);fill-opacity:1;stroke-width:1.33333337"
       d="M 16.600564,286.12453 C 11.749432,284.01152 5.7228451,277.18597 4.3329443,272.23057 3.7831583,270.27043 3.3333334,212.86667 3.3333334,144.66667 V 20.666667 L 6.6666668,14.778292 C 8.7918036,11.024212 11.933115,7.8829012 15.333334,6.1116257 20.494707,3.4229121 22.77317,3.3211445 86.000001,2.9552959 123.32004,2.7393513 154.88662,3.1271596 159.62038,3.8597525 c 16.1739,2.5030575 22.18809,6.4072725 44.06486,28.6054745 17.39654,17.652144 20.28638,21.21099 22.89995,28.20144 4.17696,11.171964 5.337,26.197101 5.37868,69.666663 L 232,168 h -19.06666 c -13.05186,0 -19.5714,0.50473 -20.66667,1.6 -1.14877,1.14877 -1.6,9.98519 -1.6,31.33333 v 29.73334 h -9.92131 c -5.45672,0 -10.29213,-0.6 -10.74536,-1.33334 -0.89622,-1.45013 -101.505196,-1.95116 -105.224283,-0.52401 -1.250667,0.47992 -2.109049,2.37925 -2.109049,4.66667 v 3.85734 L 113,237.39723 l 50.33334,0.0639 19.65698,25.26952 19.657,25.26941 -90.99033,-0.0522 c -72.633375,-0.0417 -91.810643,-0.4095 -95.056426,-1.82328 z M 171.33334,204.66667 v -4 H 117.33333 63.333334 l -0.449989,3.18254 c -0.247495,1.7504 0.352505,3.69514 1.333333,4.32163 0.980828,0.62648 25.483323,0.99435 54.449992,0.81745 l 52.66667,-0.32162 z m 0.41741,-28.9535 c 0.32904,-2.85382 -0.23545,-3.77916 -2.66667,-4.37128 -1.69624,-0.4131 -25.81886,-0.58404 -53.60584,-0.37984 -44.787831,0.32915 -50.675784,0.61554 -51.878863,2.52339 -0.746407,1.18365 -0.977827,3.14048 -0.514269,4.34848 0.766477,1.99741 5.707944,2.16483 54.545532,1.84791 l 53.7027,-0.3485 z m -1.13724,-26.98245 c 0.88368,-1.06477 1.39893,-3.01477 1.145,-4.33333 C 171.32316,142.13684 168.21562,142 117.31507,142 H 63.333334 l -0.449989,3.18255 c -0.247495,1.7504 0.352505,3.69121 1.333333,4.31292 0.980828,0.62169 24.959857,1.13956 53.286732,1.15078 43.41454,0.0172 51.75574,-0.28364 53.1101,-1.91553 z m -1.19252,-26.11097 c 2.90661,-1.55557 3.38149,-5.28393 0.97901,-7.68642 -1.18862,-1.18862 -14.70169,-1.6 -52.55762,-1.6 -28.026684,0 -51.906684,0.3642 -53.066663,0.80932 -2.965695,1.13805 -2.789732,8.1506 0.224284,8.93825 5.06832,1.32449 101.883399,0.89693 104.420989,-0.46115 z m 1.19252,-28.555698 c 0.88368,-1.064771 1.39893,-3.014771 1.145,-4.333333 -0.43535,-2.260547 -3.54289,-2.397386 -54.44344,-2.397386 H 63.333334 l -0.449989,3.182547 c -0.247495,1.7504 0.352505,3.691213 1.333333,4.312916 0.980828,0.621704 24.959857,1.139557 53.286732,1.150787 43.41454,0.01721 51.75574,-0.283634 53.1101,-1.915531 z M 216.08766,63.953088 C 221.1723,61.231869 218.87232,57.441489 201,39.088507 183.4632,21.080067 174.5068,13.333333 171.22314,13.333333 c -2.92727,0 -3.43116,4.781068 -1.92628,18.276927 1.7979,16.123752 3.45301,21.791579 7.92936,27.153517 2.92829,3.507616 4.79901,4.356651 11.46972,5.205559 12.06409,1.535268 24.50648,1.527888 27.39172,-0.01625 z m -21.27019,199.177922 -17.49192,-22.46434 8.33723,-0.34104 c 4.58548,-0.18758 9.68722,-0.649 11.33722,-1.0254 l 3,-0.68436 V 207.9746 177.33333 h 12.6421 12.64209 l 0.35791,31 0.3579,31 10.93802,0.66667 10.93802,0.66667 -16.03972,20.66666 C 223.0145,272.7 215.01199,282.80896 214.053,283.79768 c -1.44901,1.49396 -4.69894,-1.99776 -19.23553,-20.66667 z"
       id="path76"
       inkscape:connector-curvature="0" />
  </g>
  <rect
     style="opacity:1;fill:#ffffff;fill-opacity:1;fill-rule:evenodd;stroke:none;stroke-width:0.78472865;stroke-miterlimit:4;stroke-dasharray:none;stroke-opacity:1"
     id="rect1038-9-1"
     width="5.8305655"
     height="4.5508132"
     x="356.4144"
     y="243.68765"
     transform="matrix(0.99909293,0.042583,-0.42896282,0.90332215,0,0)" />
  <rect
     style="opacity:1;fill:#ffffff;fill-opacity:1;fill-rule:evenodd;stroke:none;stroke-width:0.62750816;stroke-miterlimit:4;stroke-dasharray:none;stroke-opacity:1"
     id="rect1038-9-1-2"
     width="6.0389848"
     height="2.8095422"
     x="310.70212"
     y="489.91772"
     transform="matrix(0.61218878,-0.79071164,0.12706789,0.99189402,0,0)" />
  <rect
     style="opacity:1;fill:#ffffff;fill-opacity:1;fill-rule:evenodd;stroke:none;stroke-width:0.69795036;stroke-miterlimit:4;stroke-dasharray:none;stroke-opacity:1"
     id="rect1038-9-1-2-7"
     width="6.1930566"
     height="3.3892593"
     x="421.87033"
     y="278.7757"
     transform="matrix(0.99945906,0.03288735,-0.60715079,0.79458664,0,0)" />
</svg>
