<?xml version="1.0" encoding="UTF-8" standalone="no"?>
<!-- Created with Inkscape (http://www.inkscape.org/) -->

<svg
   xmlns:dc="http://purl.org/dc/elements/1.1/"
   xmlns:cc="http://creativecommons.org/ns#"
   xmlns:rdf="http://www.w3.org/1999/02/22-rdf-syntax-ns#"
   xmlns:svg="http://www.w3.org/2000/svg"
   xmlns="http://www.w3.org/2000/svg"
   xmlns:xlink="http://www.w3.org/1999/xlink"
   xmlns:sodipodi="http://sodipodi.sourceforge.net/DTD/sodipodi-0.dtd"
   xmlns:inkscape="http://www.inkscape.org/namespaces/inkscape"
   version="1.1"
   id="svg1187"
   width="232"
   height="290.66666"
   viewBox="0 0 232 290.66666"
   sodipodi:docname="simplify.svg"
   inkscape:version="0.92.5 (2060ec1f9f, 2020-04-08)">
  <metadata
     id="metadata1193">
    <rdf:RDF>
      <cc:Work
         rdf:about="">
        <dc:format>image/svg+xml</dc:format>
        <dc:type
           rdf:resource="http://purl.org/dc/dcmitype/StillImage" />
        <dc:title></dc:title>
      </cc:Work>
    </rdf:RDF>
  </metadata>
  <defs
     id="defs1191">
    <linearGradient
       inkscape:collect="always"
       id="linearGradient1209">
      <stop
         style="stop-color:#8911b2;stop-opacity:1"
         offset="0"
         id="stop1205" />
      <stop
         style="stop-color:#118ab2;stop-opacity:1"
         offset="1"
         id="stop1207" />
    </linearGradient>
    <linearGradient
       inkscape:collect="always"
       xlink:href="#linearGradient1209"
       id="linearGradient1211"
       x1="101.78278"
       y1="1.5445753"
       x2="102.27448"
       y2="291.65005"
       gradientUnits="userSpaceOnUse" />
  </defs>
  <sodipodi:namedview
     pagecolor="#ffffff"
     bordercolor="#666666"
     borderopacity="1"
     objecttolerance="10"
     gridtolerance="10"
     guidetolerance="10"
     inkscape:pageopacity="0"
     inkscape:pageshadow="2"
     inkscape:window-width="915"
     inkscape:window-height="1020"
     id="namedview1189"
     showgrid="false"
     inkscape:zoom="2.033743"
     inkscape:cx="156.89932"
     inkscape:cy="141.35457"
     inkscape:window-x="1005"
     inkscape:window-y="29"
     inkscape:window-maximized="0"
     inkscape:current-layer="svg1187" />
  <ellipse
     style="opacity:1;fill:#ffffff;fill-opacity:1;fill-rule:evenodd;stroke:none;stroke-width:1.11501038;stroke-miterlimit:4;stroke-dasharray:none;stroke-opacity:1"
     id="path1778"
     cx="106.34334"
     cy="154.36003"
     rx="25.322765"
     ry="45.482643"
     transform="rotate(-40.595261)" />
  <rect
     style="opacity:1;fill:#ffffff;fill-opacity:1;fill-rule:evenodd;stroke:none;stroke-width:1.33299994;stroke-miterlimit:4;stroke-dasharray:none;stroke-opacity:1"
     id="rect1780"
     width="169.14626"
     height="118.50072"
     x="22.12669"
     y="24.16297" />
  <rect
     style="opacity:1;fill:#ffffff;fill-opacity:1;fill-rule:evenodd;stroke:none;stroke-width:1.78477347;stroke-miterlimit:4;stroke-dasharray:none;stroke-opacity:1"
     id="rect1782"
     width="195.20657"
     height="162.26239"
     x="13.276013"
     y="119.55358" />
  <g
     id="g1197"
     transform="translate(0.4917052)"
     style="fill-opacity:1;fill:url(#linearGradient1211)">
    <path
       style="fill:url(#linearGradient1211);fill-opacity:1;stroke-width:1.33333337"
       d="M 19.790184,288.05126 C 13.663364,286.17005 8.6593192,282.58069 5.2723843,277.63778 L 2,272.86205 V 145.43102 18 L 5.1343623,12.958552 C 6.8582615,10.185755 10.758261,6.5857554 13.801029,4.9585519 19.319703,2.0072897 19.509095,2.0000781 90.666667,2.0316921 c 70.470213,0.031309 71.428653,0.067619 79.211333,3.0008926 4.33289,1.6330602 11.04336,5.4112663 14.91215,8.3960133 10.34002,7.97727 35.98096,34.908914 39.14997,41.120701 6.68095,13.095733 6.72655,13.895474 6.72655,117.976521 0,96.06001 -0.0356,97.37241 -2.79474,103.07205 -1.94078,4.00914 -4.69077,6.88775 -9,9.42096 l -6.20526,3.64783 L 118,288.90291 c -52.066667,0.13 -96.261084,-0.25329 -98.209816,-0.85165 z m 81.972456,-16.01235 c 3.09187,-3.67448 4.98088,-9.71173 7.01091,-22.40685 l 0.81493,-5.09627 -34.460908,-19.83138 C 56.174075,213.79714 39.381313,204.04994 37.810327,203.04396 c -2.665338,-1.70675 -3.534648,-1.17028 -13,8.02266 -8.849795,8.59511 -10.14366,10.45052 -10.14366,14.54608 0,2.76285 1.162141,6.17176 2.8245,8.28511 l 2.824498,3.59077 10.355719,-10.07763 c 5.695644,-5.54269 11.02462,-10.07762 11.842167,-10.07762 2.032877,0 6.819782,4.94044 6.819782,7.03852 0,0.93785 -3.9,5.57052 -8.666666,10.29481 -4.766667,4.72429 -8.66457,8.90696 -8.662004,9.29481 0.0068,1.02942 14.485202,8.6753 15.090573,7.96916 0.281645,-0.32852 3.048721,-4.98466 6.149057,-10.347 6.155042,-10.64573 7.951628,-12.01513 12.840734,-9.7875 4.56555,2.0802 4.113965,5.58973 -2.085027,16.20386 -2.933333,5.02256 -5.333333,9.73322 -5.333333,10.46811 0,2.00444 14.71746,10.03053 15.937021,8.69119 0.580581,-0.63762 2.090793,-5.4844 3.356028,-10.77066 2.485104,-10.38294 4.265976,-12.83476 8.830724,-12.15765 5.546328,0.82269 6.099579,4.06889 2.855331,16.7536 -1.643299,6.42515 -2.985855,12.43208 -2.98346,13.34875 0.0028,1.08078 2.071862,1.66666 5.88583,1.66666 4.88529,0 6.446014,-0.67092 9.214499,-3.96108 z m 11.28918,-45.47508 c 0.34805,-2.91934 -2.56932,-4.93217 -30.288133,-20.89717 C 65.893381,195.95 51.563056,188 50.918519,188 c -0.644538,0 -2.193163,1.12849 -3.441392,2.50777 -2.188654,2.41844 -1.11538,3.17603 30.126684,21.26547 17.817904,10.31671 32.996189,18.59195 33.729519,18.38939 0.73334,-0.20256 1.50666,-1.82201 1.71849,-3.5988 z m 48.40999,-0.88056 c 5.73582,-2.92809 15.25068,-2.97468 20.87152,-0.10213 4.79008,2.44793 5.14519,2.00439 2.33334,-2.91443 -1.04803,-1.83333 -1.90551,-6.33333 -1.90551,-9.99999 0,-3.66667 0.85748,-8.16667 1.90551,-10 2.80714,-4.91059 2.45865,-5.35776 -2.31823,-2.97474 -2.37503,1.18483 -7.03183,2.15423 -10.34844,2.15423 -3.31661,0 -7.97341,-0.9694 -10.34844,-2.15423 -2.37503,-1.18486 -4.31823,-1.97353 -4.31823,-1.75262 0,0.2209 0.9,2.55564 2,5.18832 2.71111,6.48857 2.51487,13.96526 -0.52293,19.92373 -1.38761,2.72172 -2.3798,4.94858 -2.20485,4.94858 0.17494,0 2.36026,-1.04252 4.85626,-2.31672 z M 116.5683,196.99181 c -0.45143,-3.48784 -1.90408,-7.67935 -3.2281,-9.31444 -2.29684,-2.83647 -2.3003,-3.12676 -0.0754,-6.32515 1.70934,-2.45722 22.28159,-37.71502 28.9376,-49.59475 0.78405,-1.39939 -22.49424,-14.67213 -23.63565,-13.4765 C 116.79742,120.13433 88,170.54194 88,171.78564 c 0,0.65832 -3.161621,1.22534 -7.025825,1.26006 -7.27121,0.0653 -18.712731,3.73863 -18.029492,5.78835 0.213912,0.64173 12.088868,7.95327 26.38879,16.24785 l 25.999857,15.08107 1.02788,-3.41483 c 0.56534,-1.87814 0.65853,-6.2685 0.20709,-9.75633 z m 34.5783,-80.6151 1.89844,-3.62329 -11.15961,-6.37671 c -6.13779,-3.50719 -11.67661,-6.376712 -12.3085,-6.376712 -0.63189,0 -1.81045,1.451972 -2.61903,3.226592 -1.40576,3.08532 -0.96266,3.51975 10.11931,9.92138 6.3742,3.68212 11.7203,6.73015 11.8802,6.7734 0.15992,0.0432 1.14506,-1.55185 2.18919,-3.54466 z M 53.653308,103.22044 c 10.637285,-3.753056 24.865239,-1.69397 34.552519,5.00047 1.946538,1.34516 3.795756,2.44575 4.10937,2.44575 0.313615,0 -1.429008,-3.97223 -3.872494,-8.82719 -7.265995,-14.436784 -5.972407,-29.78957 3.64842,-43.300774 l 2.801444,-3.934265 -5.779618,3.898525 C 74.268764,68.515808 56.527223,68.506841 42.411983,58.479356 l -3.588019,-2.548933 4.237991,8.217297 c 6.06153,11.753072 6.667925,24.500722 1.683394,35.38837 -1.94512,4.2487 -4.558554,8.87825 -5.807632,10.28788 -1.62375,1.83247 -0.612502,1.52558 3.547955,-1.07673 3.200453,-2.00183 8.225889,-4.48889 11.167636,-5.5268 z M 162.53496,96.590451 c 8.23013,-13.949033 -3.27019,-28.461345 -16.94885,-21.387834 -3.16206,1.635161 -10.64818,12.297977 -9.38735,13.370825 1.46491,1.246507 21.89472,12.759888 22.64167,12.759888 0.49289,0 2.15544,-2.134295 3.69453,-4.742879 z m 47.35599,-32.066438 c 5.29929,-2.033528 2.00834,-6.801072 -19.06056,-27.612807 -21.9586,-21.690545 -26.8412,-24.829899 -26.82027,-17.24454 0.0172,6.215515 2.45428,25.301688 3.91009,30.621601 2.2028,8.049594 6.73604,12.661257 13.52515,13.759133 7.56577,1.223475 25.70719,1.527438 28.44559,0.476613 z"
       id="path1203"
       inkscape:connector-curvature="0" />
    <path
       style="fill:url(#linearGradient1211);fill-opacity:1;stroke-width:1.33333337"
       d="m 22.495569,288.00685 c -3.394104,-0.58999 -7.379388,-1.71938 -8.856185,-2.50974 -4.2632997,-2.28164 -9.4164108,-9.14606 -10.9140423,-14.53852 -1.89703777,-6.83058 -1.89703777,-244.419939 0,-251.250517 0.7574252,-2.727227 2.9760642,-6.858812 4.9303088,-9.1813 C 14.816875,2.0161424 14.576757,2.0458474 79.981529,1.5792548 143.41129,1.1267517 160.04665,2.0709977 172.90804,6.8538932 c 6.70548,2.4936357 10.50073,5.5876858 27.96007,22.7942018 21.6298,21.316601 25.59542,27.219506 28.47028,42.378541 1.83208,9.660531 1.77357,192.316474 -0.0637,198.931954 -0.75742,2.72723 -2.97605,6.8588 -4.9303,9.1813 -7.43684,8.83817 -3.45818,8.50517 -104.34435,8.73322 -50.233333,0.1136 -94.110328,-0.27626 -97.504431,-0.86626 z m 75.422996,-12.21236 c 5.021135,-2.28778 7.281925,-6.65502 10.084785,-19.4811 1.38956,-6.35873 2.40727,-11.67298 2.26156,-11.80942 -0.74034,-0.6933 -74.777355,-43.17064 -75.245407,-43.17064 -0.301271,0 -4.369079,3.37579 -9.039576,7.50173 -10.591895,9.35697 -13.587619,15.66505 -10.710035,22.55208 3.238285,7.75032 5.278619,7.32569 16.007179,-3.33125 10.233225,-10.16493 12.841656,-11.08001 16.377649,-5.74556 1.880124,2.83638 1.557009,3.40824 -6.840693,12.10674 C 35.966312,239.43843 32,243.89151 32,244.31279 c 0,1.40638 15.215033,9.37426 15.636235,8.18847 1.627984,-4.58323 12.778174,-21.8346 14.11249,-21.8346 2.35215,0 7.584608,3.87108 7.584608,5.61125 0,0.80303 -2.767197,6.25755 -6.149326,12.12116 -4.82618,8.36718 -5.75858,10.89578 -4.333334,11.75172 12.94508,7.77428 15.912971,9.13652 16.46557,7.55759 0.328849,-0.93961 1.809414,-6.16815 3.290148,-11.61897 3.280321,-12.07542 5.80781,-14.33874 11.425297,-10.23112 2.489428,1.82032 2.476555,2.11325 -0.629915,14.33333 -1.744205,6.86127 -3.419016,13.17729 -3.721801,14.03561 -0.483037,1.36928 1.860123,2.31352 7.257291,2.92452 0.882161,0.0999 3.123748,-0.5109 4.981302,-1.35726 z m 15.764975,-48.12783 c 0.35907,-2.38333 0.27717,-4.50193 -0.18201,-4.70801 C 113.04236,222.75258 98.866667,214.55301 82,204.7374 l -30.666667,-17.84656 -3.017658,2.80358 c -1.952479,1.81398 -2.56049,3.26076 -1.722498,4.09875 1.508123,1.50812 64.326193,38.03464 65.588823,38.13761 0.46677,0.038 1.14246,-1.88079 1.50154,-4.26412 z m 46.98313,-1 c 2.97438,-1.51643 7.8629,-2.66667 11.33333,-2.66667 3.47043,0 8.35895,1.15024 11.33333,2.66667 2.87679,1.46667 5.32204,2.66667 5.43391,2.66667 0.11187,0 -1.21499,-2.8017 -2.94859,-6.22598 -3.98581,-7.87298 -3.95698,-12.65567 0.1292,-21.43242 l 3.25515,-6.99173 -3.93111,2.90638 c -5.61128,4.1486 -17.59398,4.79443 -24.27189,1.30818 -2.75,-1.43567 -5,-2.4405 -5,-2.23296 0,0.20752 1.18683,2.99284 2.63739,6.1896 3.47872,7.66641 3.36526,12.70492 -0.45604,20.25295 -1.7336,3.42428 -3.06046,6.22598 -2.94859,6.22598 0.11187,0 2.55712,-1.2 5.43391,-2.66667 z m -43.33334,-23.57904 c 0,-4.92456 -0.96082,-9.56382 -2.74335,-13.24604 l -2.74335,-5.667 3.27563,-5.08729 c 5.73674,-8.90957 27.54475,-46.96067 27.53561,-48.04472 -0.01,-1.13563 -21.62241,-13.72253 -23.50376,-13.68815 -0.63476,0.0116 -8.05411,12.28176 -16.48744,27.26703 l -15.333337,27.24595 -4.757998,0.0663 c -6.086003,0.0848 -17.821627,3.55158 -19.705067,5.82099 -1.140185,1.37384 4.299585,5.0642 25.5069,17.30401 14.825892,8.55676 27.406162,15.56906 27.956162,15.58287 0.55,0.0139 1,-3.38545 1,-7.55393 z m 34.19718,-86.53475 c 2.60074,-3.96924 3.69993,-2.86797 -11.98206,-12.00482 -5.74834,-3.34918 -10.61706,-5.89261 -10.81938,-5.652067 -2.21865,2.637797 -3.43785,6.928567 -2.29379,8.072627 1.58832,1.58832 20.45353,12.72216 21.86732,12.90561 0.53309,0.0692 1.98565,-1.42543 3.22791,-3.32135 z M 55.721365,103.16316 c 11.805743,-3.43202 23.083426,-1.02463 36.266644,7.74167 L 96.642684,114 92.889844,109.07877 C 85.124503,98.89583 82.13758,84.757506 85.326533,73.278534 c 0.721415,-2.596805 3.371119,-8.14153 5.888231,-12.321609 l 4.576569,-7.600145 -4.483556,3.419775 C 76.530965,68.047378 55.289393,67.908801 40.254556,56.443488 l -4.921223,-3.75284 3.095167,4.654675 c 12.178887,18.315249 12.420579,34.740683 0.750863,51.028707 l -4.566738,6.37403 6.859035,-4.71819 c 3.772469,-2.595 10.184837,-5.68502 14.249705,-6.86671 z M 163.31087,96.044323 c 3.87989,-7.656578 4.132,-10.675746 1.342,-16.071013 -2.50316,-4.840582 -5.75136,-6.639978 -11.9862,-6.639978 -6.6544,0 -9.53454,1.84009 -14.06726,8.987457 l -3.88828,6.131182 12.3111,7.067265 c 6.7711,3.886996 12.451,7.085304 12.62197,7.107344 0.17099,0.022 1.82099,-2.939969 3.66667,-6.582257 z m 48.39526,-32.512359 c 3.08104,-3.081047 -0.52818,-7.969473 -19.91416,-26.972176 -19.0567,-18.679935 -24.09517,-22.687158 -26.58829,-21.146327 -2.1334,1.318515 -0.65787,23.604905 2.24867,33.96371 3.16856,11.292652 7.19073,14.60104 19.41818,15.972161 12.21743,1.369997 22.39283,0.625401 24.8356,-1.817368 z"
       id="path1201"
       inkscape:connector-curvature="0" />
    <path
       style="fill:url(#linearGradient1211);fill-opacity:1;stroke-width:1.33333337"
       d="M 18.551429,286.7257 C 12.679562,284.94622 8.6365711,281.58787 5.2522161,275.67857 L 2,269.99999 V 145.33333 20.666666 l 2.958552,-5.532304 c 1.6272036,-3.042767 5.227204,-6.9427674 8,-8.6666665 L 18,3.3333333 85.779585,2.9532987 c 42.409485,-0.2377865 70.554165,0.1328746 75.192245,0.99027 14.0882,2.6043437 20.66493,6.7943973 39.14478,24.9392333 18.96786,18.623977 23.78647,25.141578 27.44164,37.117196 C 229.83032,73.444056 230,80.810303 230,172 v 97.99999 l -3.33333,5.90638 c -2.23283,3.95636 -5.27344,6.92774 -9.20971,9 l -5.87639,3.09362 -94.79028,-0.1146 C 64.655629,287.82233 20.448143,287.3005 18.551429,286.7257 Z M 99.71094,275.25239 c 4.15234,-2.90841 6.64683,-8.27629 8.96316,-19.28772 1.09591,-5.2098 1.99257,-9.98122 1.99257,-10.6032 0,-1.20046 -73.426526,-44.03234 -75.467023,-44.02215 -0.659806,0.003 -4.967031,3.36672 -9.571612,7.47425 -12.957009,11.55837 -15.204113,18.19085 -8.758436,25.8511 l 3.536264,4.20262 10.1599,-10.10032 C 40.708592,218.68363 43.381871,217.24853 46.4,220.26666 c 3.289912,3.28991 1.528008,7.21505 -7.058845,15.72559 l -8.658844,8.58186 7.658844,4.36292 c 4.212365,2.39962 8.001841,4.37043 8.42106,4.37962 0.419217,0.009 3.318089,-4.45042 6.441937,-9.91019 7.258581,-12.68637 8.457453,-13.70504 12.789173,-10.86679 1.837004,1.20366 3.340008,2.63916 3.340008,3.19002 0,0.55085 -2.7,5.73942 -6,11.53017 -3.3,5.79076 -6,10.99748 -6,11.57052 0,1.0826 15.38022,10.50295 17.147748,10.50295 0.552683,0 2.1089,-4.35 3.458262,-9.66667 3.180118,-12.53011 4.179564,-14.33333 7.944309,-14.33333 6.008804,0 6.426449,2.59724 2.680685,16.67056 -2.826054,10.61785 -3.137094,13.23532 -1.682362,14.15738 2.87184,1.82031 9.61451,1.3426 12.828965,-0.90888 z m 14.31,-47.34774 c 0.49472,-2.25243 0.58644,-4.40839 0.20382,-4.791 -0.38262,-0.38263 -14.614695,-8.72719 -31.626835,-18.54348 l -30.931162,-17.8478 -3.910148,2.78427 c -2.150582,1.53134 -3.545151,3.16881 -3.099042,3.63881 1.589391,1.67451 65.371267,38.5882 66.903157,38.72013 0.8584,0.074 1.96549,-1.70849 2.46021,-3.96093 z m 41.32417,2.74296 c 1.7191,-2.78158 11.40506,-6.64762 16.65489,-6.64762 5.24983,0 14.93579,3.86604 16.65489,6.64762 0.4597,0.74381 1.43095,1.35238 2.15832,1.35238 0.72738,0 -0.15273,-1.95 -1.95578,-4.33333 -6.68772,-8.84001 -7.04722,-20.1142 -0.92474,-29 4.15819,-6.03493 4.54355,-7.37532 1.26411,-4.39697 -4.3334,3.93556 -12.12615,7.07023 -17.48731,7.03436 -4.67801,-0.0313 -14.78528,-4.06329 -16.29036,-6.49855 -0.50041,-0.80969 -1.50497,-1.47217 -2.23234,-1.47217 -0.72738,0 0.17401,1.96203 2.00308,4.36007 6.62838,8.69025 6.64726,21.23151 0.0451,29.88754 -1.85381,2.43048 -2.77545,4.41905 -2.04808,4.41905 0.72738,0 1.69863,-0.60857 2.15832,-1.35238 z m -40.33614,-41.71444 -2.44548,-4.18724 15.84017,-27.33233 c 8.7121,-15.03278 15.32399,-27.50438 14.69311,-27.71468 -0.63088,-0.21029 -6.21496,-3.33413 -12.40906,-6.94186 -6.19411,-3.60772 -11.63708,-6.32769 -12.09551,-6.04438 -0.45842,0.28332 -7.90402,12.83887 -16.54579,27.90122 L 86.334109,172 h -5.919878 c -6.423472,0 -19.452795,4.8843 -18.739294,7.02481 0.242122,0.72636 12.714311,8.41177 27.715976,17.07867 l 27.275757,15.758 0.39389,-9.37054 c 0.30271,-7.20126 -0.17223,-10.33986 -2.05159,-13.55777 z m 37.98094,-75.44058 c -0.26986,-1.53675 -21.4805,-14.797987 -23.70243,-14.819142 -0.39189,-0.0037 -1.74271,1.737172 -3.00181,3.868672 l -2.28929,3.87545 12.33514,7.29055 12.33515,7.29055 2.32324,-2.83267 c 1.27777,-1.55797 2.17777,-3.661 2,-4.67341 z M 51.004724,105.29531 c 11.839043,-5.374 28.842816,-2.81302 40.535061,6.10509 2.355259,1.79645 4.581748,3.26626 4.947754,3.26626 0.366005,0 -1.395312,-3.0623 -3.914038,-6.80511 -6.049956,-8.990192 -9.117072,-19.687043 -8.018793,-27.966276 1.079635,-8.138677 3.331868,-13.492829 9.365435,-22.264091 l 4.814122,-6.998503 -5.94906,4.54102 C 75.938909,68.032768 56.202363,68.010561 39,55.113183 c -5.18354,-3.886332 -5.481753,-3.107582 -1.040004,2.715852 6.139413,8.049185 9.202147,16.828907 9.129524,26.170963 -0.07649,9.84052 -2.308953,16.072462 -9.187379,25.646722 l -4.742034,6.60057 6.091337,-4.19095 c 3.350235,-2.30502 8.639211,-5.34749 11.75328,-6.76103 z M 163.27713,96.882854 c 4.43702,-7.571196 4.42887,-14.109745 -0.0241,-19.401882 -4.40879,-5.239548 -11.41013,-6.72079 -17.15176,-3.628718 -3.69704,1.990987 -12.50848,13.534212 -11.26231,14.753916 1.15399,1.129467 23.24495,13.97351 24.10491,14.01498 0.51908,0.025 2.46908,-2.5572 4.33333,-5.738296 z M 209.9132,65.366333 c 6.89732,-2.622354 4.65937,-6.14836 -18.42711,-29.033001 -21.35077,-21.16412 -26.11382,-24.499245 -27.99338,-19.601194 -0.7943,2.069886 1.11932,24.349721 2.66597,31.039553 1.22428,5.295396 6.76681,14.434862 9.47264,15.620086 6.2716,2.747117 28.83212,4.046551 34.28188,1.974556 z"
       id="path1199"
       inkscape:connector-curvature="0" />
  </g>
</svg>
