<?xml version="1.0" encoding="UTF-8" standalone="no"?>
<!-- Created with Inkscape (http://www.inkscape.org/) -->

<svg
   xmlns:dc="http://purl.org/dc/elements/1.1/"
   xmlns:cc="http://creativecommons.org/ns#"
   xmlns:rdf="http://www.w3.org/1999/02/22-rdf-syntax-ns#"
   xmlns:svg="http://www.w3.org/2000/svg"
   xmlns="http://www.w3.org/2000/svg"
   xmlns:xlink="http://www.w3.org/1999/xlink"
   xmlns:sodipodi="http://sodipodi.sourceforge.net/DTD/sodipodi-0.dtd"
   xmlns:inkscape="http://www.inkscape.org/namespaces/inkscape"
   version="1.1"
   id="svg1865"
   width="269.33334"
   height="334.66666"
   viewBox="0 0 269.33334 334.66666"
   sodipodi:docname="summarize.svg"
   inkscape:version="0.92.5 (2060ec1f9f, 2020-04-08)">
  <metadata
     id="metadata1871">
    <rdf:RDF>
      <cc:Work
         rdf:about="">
        <dc:format>image/svg+xml</dc:format>
        <dc:type
           rdf:resource="http://purl.org/dc/dcmitype/StillImage" />
        <dc:title></dc:title>
      </cc:Work>
    </rdf:RDF>
  </metadata>
  <defs
     id="defs1869">
    <linearGradient
       inkscape:collect="always"
       id="linearGradient1885">
      <stop
         style="stop-color:#8911b2;stop-opacity:1"
         offset="0"
         id="stop1881" />
      <stop
         style="stop-color:#118ab2;stop-opacity:1"
         offset="1"
         id="stop1883" />
    </linearGradient>
    <linearGradient
       inkscape:collect="always"
       xlink:href="#linearGradient1885"
       id="linearGradient1887"
       x1="118.32253"
       y1="3.4767966"
       x2="119.4548"
       y2="331.83597"
       gradientUnits="userSpaceOnUse" />
  </defs>
  <sodipodi:namedview
     pagecolor="#ffffff"
     bordercolor="#666666"
     borderopacity="1"
     objecttolerance="10"
     gridtolerance="10"
     guidetolerance="10"
     inkscape:pageopacity="0"
     inkscape:pageshadow="2"
     inkscape:window-width="915"
     inkscape:window-height="1020"
     id="namedview1867"
     showgrid="false"
     inkscape:zoom="1.7663584"
     inkscape:cx="160.43446"
     inkscape:cy="168.82569"
     inkscape:window-x="1005"
     inkscape:window-y="29"
     inkscape:window-maximized="0"
     inkscape:current-layer="svg1865" />
  <rect
     style="opacity:1;fill:#ffffff;fill-opacity:1;fill-rule:evenodd;stroke:none;stroke-width:1.92971885;stroke-miterlimit:4;stroke-dasharray:none;stroke-opacity:1"
     id="rect2454"
     width="165.31186"
     height="146.06322"
     x="31.137508"
     y="30.085213" />
  <ellipse
     style="opacity:1;fill:#ffffff;fill-opacity:1;fill-rule:evenodd;stroke:none;stroke-width:1.41906357;stroke-miterlimit:4;stroke-dasharray:none;stroke-opacity:1"
     id="path2456"
     cx="147.95659"
     cy="114.96899"
     rx="24.957525"
     ry="51.754253"
     transform="matrix(0.96822632,-0.25007559,0.62518084,0.78047992,0,0)" />
  <rect
     style="opacity:1;fill:#ffffff;fill-opacity:1;fill-rule:evenodd;stroke:none;stroke-width:2.86168981;stroke-miterlimit:4;stroke-dasharray:none;stroke-opacity:1"
     id="rect2454-0"
     width="219.66096"
     height="241.74028"
     x="31.13752"
     y="80.471367" />
  <g
     id="g1875"
     transform="translate(1.6196855e-6)"
     style="fill-opacity:1;fill:url(#linearGradient1887)">
    <path
       style="fill:url(#linearGradient1887);fill-opacity:1;stroke-width:1.33333337"
       d="M 27.101867,330.62682 C 15.989708,328.39102 8.9374606,322.34899 5.5174711,312.13437 3.3588502,305.68711 3.3588502,28.979546 5.5174711,22.532297 7.9215481,15.351934 12.747886,9.8588975 19.630415,6.469824 l 6.369586,-3.1364907 h 77.333339 c 60.11965,0 79.11405,0.4010186 85.33333,1.8015966 14.40431,3.2438445 22.46142,8.6661511 43.65112,29.3765571 21.17,20.691131 25.77239,26.734904 30.57848,40.155178 l 3.10374,8.666667 V 196 c 0,88.63737 -0.36707,113.70137 -1.72104,117.51811 -2.28163,6.43166 -9.75555,13.95287 -15.95016,16.05108 C 244.4843,330.87138 219.06446,331.31713 138,331.50385 80.066669,331.63729 30.162507,331.24262 27.101867,330.62682 Z M 236.22835,301.79334 c 1.34108,-1.21365 2.43832,-3.32716 2.43832,-4.69667 0,-1.3695 -8.75886,-13.64818 -19.46413,-27.28594 l -19.46415,-24.79592 6.13082,-5.62869 c 6.41036,-5.88535 7.23442,-8.06034 4.46413,-11.78238 C 208.20237,224.74068 171.37178,208 167.20379,208 c -1.81981,0 -3.99945,1.30817 -5.17892,3.10825 -1.82619,2.78712 -1.8266,5.09453 -0.004,22.33333 2.43116,22.99393 2.71989,24.44209 5.40964,27.13184 3.03039,3.03039 4.58965,2.67473 13.48805,-3.07659 l 7.99872,-5.16982 12.54134,16.0619 c 30.89384,39.5663 29.47117,38.1995 34.76967,33.40443 z M 153.30107,191.93181 c 42.69676,-31.02219 77.93686,-57.20237 78.31131,-58.17819 1.02151,-2.662 -3.29927,-8.42029 -6.31823,-8.42029 -1.45441,0 -37.74057,25.53085 -80.63593,56.73521 -60.729863,44.17815 -77.991552,57.3608 -77.991552,59.56168 0,3.7335 3.98779,8.01732 6.782867,7.28639 1.221582,-0.31945 37.154775,-25.96261 79.851535,-56.9848 z m -21.94324,-26.69388 c 42.51987,-30.85247 77.7521,-57.28648 78.29384,-58.74226 0.71187,-1.9129 0.054,-3.57793 -2.37256,-6.00444 -3.33248,-3.33248 -3.38744,-3.339384 -7.35959,-0.924393 -2.20112,1.338243 -37.86732,27.033163 -79.25823,57.099823 -51.208174,37.198 -75.267661,55.4403 -75.292076,57.08766 -0.0605,4.08229 2.570318,7.57901 5.702195,7.57901 1.809004,0 33.318166,-22.01516 80.286421,-56.0954 z m -20.46282,-28.77792 c 2.86643,-2.59408 3.1355,-9.57011 1.072,-27.79335 -2.03079,-17.934376 -2.55036,-20.392874 -4.78129,-22.6238 -3.17731,-3.177314 -6.96646,-2.45053 -14.157086,2.71542 -3.642749,2.617054 -6.776024,4.567054 -6.962832,4.333333 C 85.878993,92.857891 78.058569,82.766665 68.687082,70.666665 48.653752,44.800623 45.572998,41.333333 42.623862,41.333333 c -3.117585,0 -7.078506,4.784099 -6.33017,7.645739 0.345201,1.32005 9.34321,13.531964 19.995576,27.137586 l 19.367939,24.737492 -6.822549,6.04086 c -6.373788,5.64351 -6.734224,6.29201 -5.479722,9.85917 1.15645,3.28834 4.116606,5.06467 21.327282,12.7981 10.991448,4.93889 20.837212,9.01008 21.879462,9.04709 1.04226,0.0371 2.99226,-0.92569 4.33333,-2.13936 z M 248.55762,75.19068 c 1.15999,-0.445125 2.10905,-2.316503 2.10905,-4.158619 0,-2.526349 -4.99606,-8.430741 -20.33333,-24.030085 -21.61465,-21.984003 -29.10194,-28.33531 -33.40326,-28.33531 -2.56474,0 -2.63522,0.590351 -1.79089,15 1.69331,28.898158 6.84217,39.122195 20.86082,41.423079 5.46904,0.897635 30.281,0.974556 32.55761,0.100934 z"
       id="path1879"
       inkscape:connector-curvature="0" />
    <path
       style="fill:url(#linearGradient1887);fill-opacity:1;stroke-width:1.33333337"
       d="M 21.458542,328.94463 C 14.739163,326.79959 8.4289639,319.76326 6.0546996,311.76825 2.991249,301.45249 2.947537,33.361363 6.0076255,23.056929 8.3847641,15.052236 15.831358,7.5790346 23.572295,5.4294983 26.888454,4.5086534 55.236709,4.0122762 104.78672,4.0074358 c 71.7829,-0.00701 76.71444,0.1445856 86.55214,2.6606426 5.73765,1.4674432 13.18363,4.4374946 16.54661,6.6001146 8.70127,5.595476 47.23538,44.941153 50.63691,51.703376 1.55988,3.101031 3.88048,9.701031 5.15689,14.666667 2.11316,8.220878 2.32074,18.807777 2.32074,118.361764 0,101.35342 -0.17203,109.77902 -2.357,115.43989 -1.29636,3.3586 -4.00486,7.68529 -6.0189,9.61486 -8.133,7.79191 -5.36677,7.6244 -123.45841,7.47579 -73.868568,-0.0929 -109.605703,-0.59581 -112.707158,-1.58591 z m 215.874798,-27.6113 c 4.18151,-4.18151 5.7524,-1.46351 -19.61665,-33.94123 l -17.71414,-22.67781 5.99874,-5.12756 c 6.52069,-5.57372 7.63826,-9.68967 3.61868,-13.32733 C 206.08745,223.0625 171.50463,208 167.69724,208 c -1.80617,0 -4.37409,1.20461 -5.70652,2.67692 -2.27044,2.50881 -2.3168,3.7857 -0.73821,20.33333 2.09961,22.00941 3.30873,27.79428 6.26051,29.95266 3.63693,2.6594 6.32384,2.06872 13.71402,-3.01482 3.77279,-2.59523 7.39728,-4.3863 8.05443,-3.98015 0.65716,0.40615 7.33891,8.67951 14.84832,18.38525 25.98991,33.5913 27.37952,34.80416 33.20355,28.98014 z M 147.78018,196.45921 c 83.05556,-60.25108 84.21983,-61.14019 84.21983,-64.31606 0,-1.28974 -1.4777,-3.7332 -3.28375,-5.4299 -3.22084,-3.02582 -3.35495,-3.03883 -7,-0.67908 -8.30465,5.37631 -149.319493,107.94581 -152.716258,111.08073 -2.016667,1.8612 -3.666667,3.98308 -3.666667,4.71528 0,2.05874 5.572203,7.50315 7.679261,7.50315 1.0346,0 34.680014,-23.79336 74.767584,-52.87412 z m -16.03439,-31.05573 c 43.98195,-31.95131 77.8423,-57.43897 78.32402,-58.95674 0.89001,-2.80418 -3.77108,-9.113409 -6.73274,-9.113409 -0.84229,0 -6.28771,3.480419 -12.10092,7.734259 -5.81321,4.25384 -40.26948,29.23434 -76.56948,55.51223 -61.862601,44.78288 -70.666669,51.51735 -70.666669,54.05475 0,2.56423 5.881267,8.19983 7.983555,7.65007 1.257733,-0.32891 37.150738,-25.92543 79.762234,-56.88116 z M 112,136 c 3.20074,-3.20074 3.17404,-1.93014 0.55323,-26.32656 -1.21921,-11.349297 -2.92468,-20.94279 -4.03074,-22.673442 -2.69214,-4.212402 -8.2988,-3.838065 -14.977558,1 -3.037011,2.2 -6.045322,4 -6.685133,4 -0.63981,0 -10.034992,-11.370337 -20.87818,-25.267415 C 55.138432,52.835503 45.413253,41.137655 44.37011,40.737365 c -4.113501,-1.578499 -10.990803,5.39349 -8.835212,8.956857 0.545352,0.90151 9.573099,12.58579 20.061659,25.965066 18.127773,23.123902 20.69185,27.007372 17.831714,27.007372 -0.681119,0 -3.381119,2.02085 -6,4.49077 -5.204071,4.90807 -6.212401,9.95448 -2.600075,13.01264 3.384331,2.86514 38.157054,18.27289 41.505144,18.39087 1.65,0.0582 4.2,-1.09428 5.66666,-2.56094 z M 249.35591,74.644096 c 2.45022,-2.450213 2.51878,-3.013127 0.77135,-6.333333 -2.32564,-4.418831 -45.50823,-47.301722 -49.94947,-49.602807 -2.58153,-1.337531 -3.51165,-1.278855 -5.11307,0.322556 -1.66692,1.666925 -1.73989,4.134108 -0.49161,16.620485 2.21967,22.202809 6.48511,33.967207 13.71935,37.83885 3.08767,1.65247 17.30477,3.385754 30.04088,3.662445 6.7338,0.14629 8.84952,-0.335142 11.02257,-2.508196 z"
       id="path1877"
       inkscape:connector-curvature="0" />
  </g>
</svg>
